<?xml version="1.0" encoding="utf-8"?>
<!-- Svg Vector Icons : http://www.onlinewebfonts.com/icon -->
<!DOCTYPE svg PUBLIC "-//W3C//DTD SVG 1.1//EN" "http://www.w3.org/Graphics/SVG/1.1/DTD/svg11.dtd">
<svg version="1.1" xmlns="http://www.w3.org/2000/svg" xmlns:xlink="http://www.w3.org/1999/xlink" x="0px" y="0px" viewBox="0 0 256 256" enable-background="new 0 0 256 256" xml:space="preserve">
<metadata> Svg Vector Icons : http://www.onlinewebfonts.com/icon </metadata>
<g><g><path fill="black" d="M159.3,103.5c-2.8-8.3-15.9-23.7-19.8-23.7c-3.9,0-5.1,25.2-13.8,27.4c-8.3,2.1-49.1,11.8-49.1,11.8s-6.7-5.5-8.7-5.1c-1.7,0.3-2.6,8-7.8,8.4c-5.2,0.4-12.2,0.1-12.2,0.1C35.6,97.9,10,96.6,10,96.6c13.1,19.6,25.8,32.5,7.9,59.7c12.4,0,28.3-18.9,29.5-23c4.4-1.2,9.5-1.1,12.2,2.1c2.1,2.4,2.1,3.5,3.7,4c1.6,0.5,3.4-3.5,6.2-3.5c2.8,0,16.2,4.2,19.6,5.3c3.4,1.1,6.9,13.1,11.3,13.6c4.4,0.5,14.3-8.1,16.6-8.1c2.3,0,19.3,2.5,38.2,1.8c3.2,3.5,7.4,10.4-1.1,23.5c-1.6,2.5-1.2,6.7,4.1,2.5c5.3-4.1,15.1-10,25-27.9c10.2-0.9,62.9-13.8,62.9-23.2S188,102.6,159.3,103.5z"/><g></g><g></g><g></g><g></g><g></g><g></g><g></g><g></g><g></g><g></g><g></g><g></g><g></g><g></g><g></g></g></g>
</svg>